<!-- icon666.com - MILLIONS vector ICONS FREE --><svg version="1.1" id="Capa_1" xmlns="http://www.w3.org/2000/svg" xmlns:xlink="http://www.w3.org/1999/xlink" x="0px" y="0px" viewBox="0 0 512.006 512.006" style="enable-background:new 0 0 512.006 512.006;" xml:space="preserve"><g><g><g><path d="M495.614,371.887h-29.553c-7.311-28.552-33.268-49.727-64.087-49.727c-30.797,0-56.744,21.174-64.052,49.727H204.647 c-7.311-28.552-33.265-49.727-64.069-49.727c-36.45,0-66.101,29.66-66.101,66.11c0,36.45,29.651,66.11,66.101,66.11 c30.804,0,56.759-21.174,64.069-49.727h133.275c7.309,28.552,33.256,49.727,64.052,49.727c30.819,0,56.776-21.174,64.087-49.727 h29.562c9.044,0,16.374-7.331,16.374-16.383C511.997,379.218,504.667,371.887,495.614,371.887z M140.578,421.623 c-18.38,0-33.343-14.963-33.343-33.352s14.963-33.352,33.343-33.352c18.359,0,33.303,14.9,33.367,33.235 c0,0.04-0.006,0.078-0.006,0.117s0.006,0.078,0.006,0.117C173.881,406.723,158.936,421.623,140.578,421.623z M401.974,421.623 c-18.389,0-33.352-14.963-33.352-33.352s14.963-33.352,33.352-33.352c18.368,0,33.321,14.9,33.385,33.236 c0,0.039-0.006,0.077-0.006,0.117s0.006,0.077,0.006,0.117C435.295,406.723,420.341,421.623,401.974,421.623z" fill="#000000" style="fill: rgb(238, 89, 31);"></path><path d="M450.511,111.734c-3.08-3.089-7.251-4.819-11.609-4.819h-91.182c-9.053,0-16.383,7.331-16.383,16.383v128.413 c0,9.052,7.331,16.383,16.383,16.383h99.986c9.053,0,16.383-7.331,16.383-16.383c0-9.053-7.331-16.383-16.383-16.383h-83.603 v-95.646h65.702c12.878,24.326,49.434,108.391,49.434,137.234v71.364c0,9.053,7.331,16.383,16.383,16.383 c9.044,0,16.374-7.331,16.383-16.392v-71.364C512.006,235.807,461.72,122.978,450.511,111.734z" fill="#000000" style="fill: rgb(238, 89, 31);"></path><path d="M245.756,298.686c6.994,0,13.215-4.429,15.496-11.023l68.071-197.256h73.494c9.052,0,16.383-7.331,16.383-16.383 c0-9.052-7.331-16.383-16.383-16.383h-84.792c-0.257-0.018-0.524-0.018-0.763-0.009h-68.196c-6.878,0-13.02,4.287-15.38,10.748 l-13.091,35.775H52.493c-17.12,0-31.799,6.612-41.322,18.629c-10.304,13.011-13.694,31.249-9.274,50.073 c6.009,25.341,27.839,97.717,32.128,111.889v72.081c0,9.053,7.331,16.383,16.383,16.383c9.044,0,16.374-7.34,16.383-16.383 v-58.14H245.756z M36.847,143.151c3.275-4.127,8.538-6.221,15.647-6.221h179.559c6.878,0,13.02-4.287,15.38-10.748l13.082-35.775 h34.142l-60.572,175.521H62.575c-7.313-24.326-23.909-80.008-28.799-100.589C31.708,156.49,32.853,148.183,36.847,143.151z" fill="#000000" style="fill: rgb(238, 89, 31);"></path><path d="M196.357,247.477c1.757,0.595,3.532,0.879,5.272,0.879c6.825,0,13.197-4.295,15.514-11.12l23.386-68.888 c2.911-8.573-1.677-17.874-10.242-20.785c-8.618-2.884-17.874,1.686-20.785,10.242l-23.386,68.888 C183.205,235.265,187.793,244.566,196.357,247.477z" fill="#000000" style="fill: rgb(238, 89, 31);"></path><path d="M135.652,247.486c1.74,0.595,3.514,0.87,5.254,0.87c6.825,0,13.206-4.304,15.522-11.138l23.324-68.888 c2.893-8.573-1.695-17.874-10.268-20.776c-8.564-2.875-17.865,1.695-20.776,10.268l-23.324,68.888 C122.49,235.283,127.079,244.584,135.652,247.486z" fill="#000000" style="fill: rgb(238, 89, 31);"></path><path d="M74.92,247.477c1.74,0.604,3.515,0.879,5.254,0.879c6.834,0,13.206-4.304,15.514-11.138l23.332-68.888 c2.902-8.564-1.686-17.874-10.26-20.768c-8.573-2.929-17.874,1.686-20.768,10.26L64.661,226.71 C61.759,235.274,66.347,244.584,74.92,247.477z" fill="#000000" style="fill: rgb(238, 89, 31);"></path><path d="M305.147,301.251c0,9.053,7.331,16.383,16.383,16.383h24.815c9.052,0,16.383-7.331,16.383-16.383 c0-9.052-7.331-16.383-16.383-16.383h-24.815C312.478,284.868,305.147,292.198,305.147,301.251z" fill="#000000" style="fill: rgb(238, 89, 31);"></path></g></g></g></svg>