<!-- icon666.com - MILLIONS vector ICONS FREE --><svg version="1.1" id="Capa_1" xmlns="http://www.w3.org/2000/svg" xmlns:xlink="http://www.w3.org/1999/xlink" x="0px" y="0px" viewBox="0 0 489.206 489.206" style="enable-background:new 0 0 489.206 489.206;" xml:space="preserve"><g><path d="M483.903,141.5L371.503,7.3c-4.2-4.2-9.4-7.3-15.6-7.3h-223.7c-6.2,0-11.4,3.1-15.6,7.3L5.303,141.5 c-6.2,7.3-6.2,17.7-1,25l223.7,314.2c8.6,13.3,27.3,9.2,33.3,0l223.6-314.2C490.103,159.2,490.103,148.8,483.903,141.5z M189.903,133.2l-29.8-91.6h169.3l-29.8,91.5h-109.7V133.2z M288.203,174.8l-43.6,199.3l-43.5-199.3H288.203z M365.303,62.8 l58.8,70.3h-81.9L365.303,62.8z M124.203,62.2l23.9,71h-83.8L124.203,62.2z M160.303,174.8l43.6,202.1l-144-202.1L160.303,174.8 L160.303,174.8z M285.703,376.4l44.3-201.6h99.9L285.703,376.4z" fill="#000000" style="fill: rgb(238, 89, 31);"></path></g></svg>