<!-- icon666.com - MILLIONS vector ICONS FREE --><svg version="1.1" id="Layer_1" xmlns="http://www.w3.org/2000/svg" xmlns:xlink="http://www.w3.org/1999/xlink" x="0px" y="0px" viewBox="0 0 512 512" style="enable-background:new 0 0 512 512;" xml:space="preserve"><g><g><path d="M440.66,0H71.34c-5.947,0-10.766,4.82-10.766,10.766v490.467c0,5.947,4.82,10.766,10.766,10.766h369.319 c5.947,0,10.766-4.82,10.768-10.766V10.766C451.427,4.82,446.607,0,440.66,0z M429.894,490.467H82.106V21.533h347.788V490.467z" fill="#000000" style="fill: rgb(238, 89, 31);"></path></g></g><g><g><path d="M301.871,49.4h-91.743c-5.947,0-10.766,4.82-10.766,10.766c0,5.947,4.82,10.766,10.766,10.766h91.743 c5.945,0,10.766-4.82,10.766-10.766C312.638,54.219,307.818,49.4,301.871,49.4z" fill="#000000" style="fill: rgb(238, 89, 31);"></path></g></g><g><g><path d="M389.495,121.147H122.503c-5.947,0-10.766,4.82-10.766,10.766c0,5.947,4.82,10.766,10.766,10.766h266.994 c5.945,0,10.765-4.82,10.765-10.766C400.261,125.966,395.442,121.147,389.495,121.147z" fill="#000000" style="fill: rgb(238, 89, 31);"></path></g></g><g><g><path d="M389.495,178.779H122.503c-5.947,0-10.766,4.82-10.766,10.766s4.82,10.766,10.766,10.766h266.994 c5.945,0,10.765-4.82,10.765-10.766S395.442,178.779,389.495,178.779z" fill="#000000" style="fill: rgb(238, 89, 31);"></path></g></g><g><g><path d="M389.495,236.412H122.503c-5.947,0-10.766,4.82-10.766,10.766s4.82,10.766,10.766,10.766h266.994 c5.945,0,10.765-4.82,10.765-10.766S395.442,236.412,389.495,236.412z" fill="#000000" style="fill: rgb(238, 89, 31);"></path></g></g><g><g><path d="M177.783,295.809h-55.28c-5.947,0-10.766,4.82-10.766,10.766c0,5.947,4.82,10.766,10.766,10.766h55.28 c5.947,0,10.766-4.82,10.766-10.766C188.549,300.629,183.73,295.809,177.783,295.809z" fill="#000000" style="fill: rgb(238, 89, 31);"></path></g></g><g><g><path d="M177.783,342.268h-55.28c-5.947,0-10.766,4.82-10.766,10.766c0,5.947,4.82,10.766,10.766,10.766h55.28 c5.947,0,10.766-4.82,10.766-10.766C188.549,347.088,183.73,342.268,177.783,342.268z" fill="#000000" style="fill: rgb(238, 89, 31);"></path></g></g><g><g><path d="M398.378,421.358l-42.58-62.16c1.073-4.397,1.656-8.985,1.656-13.709c0-31.878-25.935-57.813-57.813-57.813 s-57.814,25.935-57.814,57.813c0,4.724,0.583,9.313,1.657,13.71l-42.58,62.159c-2.303,3.36-2.511,7.733-0.538,11.296 c1.901,3.436,5.515,5.554,9.419,5.554c0.145,0,0.291-0.002,0.437-0.01l25.886-1.049l8.374,24.517 c1.316,3.856,4.695,6.637,8.732,7.188c0.488,0.067,0.974,0.099,1.459,0.099c3.518,0,6.856-1.727,8.88-4.682l36.09-52.686 l36.09,52.686c2.023,2.955,5.36,4.682,8.88,4.682c0.483,0,0.973-0.032,1.459-0.099c4.036-0.551,7.416-3.333,8.733-7.188 l8.373-24.517l25.886,1.049c0.146,0.007,0.292,0.01,0.438,0.01c3.903,0,7.517-2.119,9.418-5.554 C400.888,429.089,400.68,424.717,398.378,421.358z M257.918,434.391l-4.031-11.805l-0.004,0.001 c-1.501-4.401-5.752-7.493-10.619-7.278l-12.463,0.505l23.577-34.42c6.886,8.662,16.195,15.304,26.898,18.9L257.918,434.391z M299.64,381.769c-20.006,0-36.281-16.275-36.281-36.28s16.276-36.28,36.281-36.28c20.005,0,36.28,16.275,36.28,36.28 S319.645,381.769,299.64,381.769z M356.016,415.31c-4.844-0.229-9.112,2.873-10.619,7.28l-0.006-0.002l-4.03,11.802 l-23.356-34.096c10.703-3.596,20.012-10.239,26.898-18.901l23.578,34.421L356.016,415.31z" fill="#000000" style="fill: rgb(238, 89, 31);"></path></g></g></svg>