<svg width="432" height="87" viewBox="0 0 432 87" fill="none" xmlns="http://www.w3.org/2000/svg">
<path d="M109.168 61V50.0909H115.97V51.5078H110.814V54.4908H113.254C114.063 54.4908 114.751 54.6222 115.315 54.8849C115.883 55.1477 116.317 55.5188 116.615 55.9982C116.917 56.4776 117.068 57.0423 117.068 57.6921C117.068 58.342 116.917 58.9155 116.615 59.4126C116.317 59.9098 115.883 60.2987 115.315 60.5792C114.751 60.8597 114.063 61 113.254 61H109.168ZM110.814 59.6151H113.254C113.723 59.6151 114.119 59.5227 114.442 59.3381C114.768 59.1534 115.015 58.9137 115.182 58.619C115.353 58.3242 115.438 58.0082 115.438 57.6708C115.438 57.1808 115.25 56.7599 114.873 56.4084C114.497 56.0533 113.957 55.8757 113.254 55.8757H110.814V59.6151ZM120.083 55.6307H122.458C123.46 55.6307 124.23 55.8793 124.77 56.3764C125.31 56.8736 125.58 57.5146 125.58 58.2994C125.58 58.8107 125.459 59.2706 125.218 59.679C124.976 60.0874 124.623 60.4105 124.158 60.6484C123.692 60.8828 123.126 61 122.458 61H118.884V52.8182H120.445V59.6257H122.458C122.916 59.6257 123.293 59.5067 123.588 59.2688C123.882 59.0273 124.03 58.7202 124.03 58.3473C124.03 57.9531 123.882 57.6317 123.588 57.3832C123.293 57.131 122.916 57.005 122.458 57.005H120.083V55.6307ZM126.741 61V52.8182H128.334V61H126.741ZM133.917 61.1651C133.126 61.1651 132.444 60.9858 131.872 60.6271C131.304 60.2649 130.867 59.766 130.562 59.1303C130.256 58.4947 130.104 57.7667 130.104 56.9464C130.104 56.1154 130.26 55.3821 130.572 54.7464C130.885 54.1072 131.325 53.6083 131.893 53.2496C132.461 52.891 133.131 52.7116 133.901 52.7116C134.523 52.7116 135.077 52.8271 135.563 53.0579C136.05 53.2852 136.442 53.6048 136.741 54.0167C137.042 54.4286 137.222 54.9098 137.279 55.4602H135.729C135.643 55.0767 135.448 54.7464 135.143 54.4695C134.841 54.1925 134.436 54.054 133.928 54.054C133.484 54.054 133.095 54.1712 132.762 54.4055C132.431 54.6364 132.174 54.9666 131.989 55.3963C131.805 55.8224 131.712 56.3267 131.712 56.9091C131.712 57.5057 131.803 58.0206 131.984 58.4538C132.165 58.8871 132.421 59.2227 132.751 59.4606C133.085 59.6985 133.477 59.8175 133.928 59.8175C134.23 59.8175 134.503 59.7624 134.748 59.6523C134.997 59.5387 135.205 59.3771 135.372 59.1676C135.542 58.9581 135.661 58.706 135.729 58.4112H137.279C137.222 58.9403 137.05 59.4126 136.762 59.8281C136.474 60.2436 136.089 60.5703 135.606 60.8082C135.127 61.0462 134.564 61.1651 133.917 61.1651ZM138.363 54.1925V52.8182H145.266V54.1925H142.597V61H141.042V54.1925H138.363ZM146.951 64.0682V52.8182H148.506V54.1445H148.639C148.731 53.9741 148.865 53.777 149.039 53.5533C149.213 53.3295 149.454 53.1342 149.763 52.9673C150.072 52.7969 150.48 52.7116 150.988 52.7116C151.649 52.7116 152.238 52.8786 152.757 53.2124C153.275 53.5462 153.682 54.0273 153.976 54.6559C154.275 55.2844 154.424 56.0408 154.424 56.9251C154.424 57.8093 154.277 58.5675 153.982 59.1996C153.687 59.8281 153.282 60.3129 152.767 60.6538C152.252 60.9911 151.665 61.1598 151.004 61.1598C150.507 61.1598 150.1 61.0763 149.784 60.9094C149.472 60.7425 149.227 60.5472 149.049 60.3235C148.872 60.0998 148.735 59.9009 148.639 59.7269H148.543V64.0682H146.951ZM148.511 56.9091C148.511 57.4844 148.595 57.9886 148.762 58.4219C148.929 58.8551 149.17 59.1942 149.486 59.4393C149.802 59.6808 150.189 59.8015 150.647 59.8015C151.123 59.8015 151.521 59.6754 151.84 59.4233C152.16 59.1676 152.402 58.8214 152.565 58.3846C152.732 57.9478 152.815 57.456 152.815 56.9091C152.815 56.3693 152.734 55.8846 152.57 55.4549C152.41 55.0252 152.169 54.6861 151.846 54.4375C151.526 54.1889 151.127 54.0646 150.647 54.0646C150.186 54.0646 149.795 54.1836 149.475 54.4215C149.159 54.6594 148.92 54.9915 148.756 55.4176C148.593 55.8437 148.511 56.3409 148.511 56.9091ZM159.655 61.1651C158.888 61.1651 158.218 60.9893 157.647 60.6378C157.075 60.2862 156.631 59.7944 156.315 59.1623C155.999 58.5302 155.841 57.7915 155.841 56.9464C155.841 56.0977 155.999 55.3555 156.315 54.7198C156.631 54.0842 157.075 53.5906 157.647 53.239C158.218 52.8874 158.888 52.7116 159.655 52.7116C160.422 52.7116 161.091 52.8874 161.663 53.239C162.235 53.5906 162.679 54.0842 162.995 54.7198C163.311 55.3555 163.469 56.0977 163.469 56.9464C163.469 57.7915 163.311 58.5302 162.995 59.1623C162.679 59.7944 162.235 60.2862 161.663 60.6378C161.091 60.9893 160.422 61.1651 159.655 61.1651ZM159.66 59.8281C160.157 59.8281 160.569 59.6967 160.896 59.4339C161.223 59.1712 161.464 58.8214 161.62 58.3846C161.78 57.9478 161.86 57.4666 161.86 56.9411C161.86 56.419 161.78 55.9396 161.62 55.5028C161.464 55.0625 161.223 54.7092 160.896 54.4428C160.569 54.1765 160.157 54.0433 159.66 54.0433C159.159 54.0433 158.744 54.1765 158.414 54.4428C158.087 54.7092 157.844 55.0625 157.684 55.5028C157.528 55.9396 157.449 56.419 157.449 56.9411C157.449 57.4666 157.528 57.9478 157.684 58.3846C157.844 58.8214 158.087 59.1712 158.414 59.4339C158.744 59.6967 159.159 59.8281 159.66 59.8281ZM170.777 58.7681L174.383 52.8182H176.098V61H174.538V55.0447L170.947 61H169.216V52.8182H170.777V58.7681ZM182.209 61V52.8182H183.802V56.2486H184.569L187.27 52.8182H189.241L186.071 56.7972L189.278 61H187.302L184.835 57.7294H183.802V61H182.209ZM192.896 61.1811C192.378 61.1811 191.909 61.0852 191.49 60.8935C191.071 60.6982 190.739 60.4158 190.494 60.0465C190.252 59.6772 190.131 59.2244 190.131 58.6882C190.131 58.2266 190.22 57.8466 190.398 57.5483C190.575 57.25 190.815 57.0138 191.117 56.8398C191.419 56.6658 191.756 56.5344 192.129 56.4457C192.502 56.3569 192.882 56.2894 193.269 56.2433C193.759 56.1864 194.157 56.1403 194.462 56.1048C194.767 56.0657 194.989 56.0036 195.128 55.9183C195.266 55.8331 195.336 55.6946 195.336 55.5028V55.4656C195.336 55.0004 195.204 54.6399 194.941 54.3842C194.682 54.1286 194.295 54.0007 193.78 54.0007C193.244 54.0007 192.821 54.1197 192.513 54.3576C192.207 54.592 191.996 54.853 191.879 55.1406L190.382 54.7997C190.559 54.3026 190.819 53.9013 191.16 53.5959C191.504 53.2869 191.9 53.0632 192.347 52.9247C192.795 52.7827 193.265 52.7116 193.759 52.7116C194.086 52.7116 194.432 52.7507 194.798 52.8288C195.167 52.9034 195.511 53.0419 195.831 53.2443C196.154 53.4467 196.419 53.7362 196.625 54.1126C196.831 54.4854 196.934 54.9702 196.934 55.5668V61H195.378V59.8814H195.314C195.211 60.0874 195.057 60.2898 194.851 60.4886C194.645 60.6875 194.38 60.8526 194.057 60.984C193.734 61.1154 193.347 61.1811 192.896 61.1811ZM193.242 59.9027C193.683 59.9027 194.059 59.8157 194.372 59.6417C194.688 59.4677 194.927 59.2404 195.091 58.9599C195.258 58.6758 195.341 58.3722 195.341 58.049V56.9943C195.284 57.0511 195.174 57.1044 195.011 57.1541C194.851 57.2003 194.668 57.2411 194.462 57.2766C194.256 57.3086 194.055 57.3388 193.86 57.3672C193.665 57.392 193.502 57.4134 193.37 57.4311C193.061 57.4702 192.779 57.5359 192.523 57.6282C192.271 57.7205 192.069 57.8537 191.916 58.0277C191.767 58.1982 191.692 58.4254 191.692 58.7095C191.692 59.1037 191.838 59.402 192.129 59.6044C192.42 59.8033 192.791 59.9027 193.242 59.9027ZM205.623 52.8182V61H204.067V52.8182H205.623ZM204.946 56.6161V57.9904C204.701 58.0898 204.442 58.1786 204.169 58.2567C203.895 58.3313 203.608 58.3899 203.306 58.4325C203.004 58.4751 202.69 58.4964 202.363 58.4964C201.351 58.4964 200.547 58.2496 199.95 57.756C199.353 57.2589 199.055 56.4989 199.055 55.4762V52.8022H200.605V55.4762C200.605 55.8633 200.676 56.1776 200.818 56.419C200.96 56.6605 201.163 56.8381 201.425 56.9517C201.688 57.0653 202.001 57.1222 202.363 57.1222C202.842 57.1222 203.284 57.0778 203.689 56.989C204.098 56.8967 204.517 56.7724 204.946 56.6161ZM211.268 61.1651C210.462 61.1651 209.767 60.9929 209.185 60.6484C208.606 60.3004 208.159 59.8121 207.843 59.1836C207.53 58.5515 207.374 57.8111 207.374 56.9624C207.374 56.1243 207.53 55.3857 207.843 54.7464C208.159 54.1072 208.599 53.6083 209.164 53.2496C209.732 52.891 210.396 52.7116 211.156 52.7116C211.618 52.7116 212.065 52.788 212.498 52.9407C212.932 53.0934 213.32 53.3331 213.665 53.6598C214.009 53.9865 214.281 54.4109 214.48 54.9329C214.679 55.4513 214.778 56.0817 214.778 56.8239V57.3885H208.274V56.1953H213.217C213.217 55.7763 213.132 55.4052 212.962 55.082C212.791 54.7553 212.552 54.4979 212.243 54.3097C211.937 54.1214 211.579 54.0273 211.167 54.0273C210.719 54.0273 210.329 54.1374 209.995 54.3576C209.665 54.5742 209.409 54.8583 209.228 55.2099C209.05 55.5579 208.961 55.9361 208.961 56.3445V57.2766C208.961 57.8235 209.057 58.2887 209.249 58.6722C209.444 59.0558 209.716 59.3487 210.064 59.5511C210.412 59.75 210.819 59.8494 211.284 59.8494C211.586 59.8494 211.861 59.8068 212.109 59.7216C212.358 59.6328 212.573 59.5014 212.754 59.3274C212.935 59.1534 213.074 58.9386 213.169 58.6829L214.677 58.9545C214.556 59.3984 214.34 59.7873 214.027 60.1211C213.718 60.4513 213.329 60.7088 212.861 60.8935C212.395 61.0746 211.864 61.1651 211.268 61.1651ZM219.992 61.1651C219.2 61.1651 218.518 60.9858 217.946 60.6271C217.378 60.2649 216.941 59.766 216.636 59.1303C216.33 58.4947 216.178 57.7667 216.178 56.9464C216.178 56.1154 216.334 55.3821 216.646 54.7464C216.959 54.1072 217.399 53.6083 217.968 53.2496C218.536 52.891 219.205 52.7116 219.976 52.7116C220.597 52.7116 221.151 52.8271 221.638 53.0579C222.124 53.2852 222.517 53.6048 222.815 54.0167C223.117 54.4286 223.296 54.9098 223.353 55.4602H221.803C221.718 55.0767 221.522 54.7464 221.217 54.4695C220.915 54.1925 220.51 54.054 220.002 54.054C219.558 54.054 219.17 54.1712 218.836 54.4055C218.506 54.6364 218.248 54.9666 218.063 55.3963C217.879 55.8224 217.786 56.3267 217.786 56.9091C217.786 57.5057 217.877 58.0206 218.058 58.4538C218.239 58.8871 218.495 59.2227 218.825 59.4606C219.159 59.6985 219.551 59.8175 220.002 59.8175C220.304 59.8175 220.578 59.7624 220.823 59.6523C221.071 59.5387 221.279 59.3771 221.446 59.1676C221.616 58.9581 221.735 58.706 221.803 58.4112H223.353C223.296 58.9403 223.124 59.4126 222.836 59.8281C222.548 60.2436 222.163 60.5703 221.68 60.8082C221.201 61.0462 220.638 61.1651 219.992 61.1651ZM224.437 54.1925V52.8182H231.34V54.1925H228.672V61H227.116V54.1925H224.437ZM233.025 61V52.8182H236.418C237.341 52.8182 238.073 53.0153 238.612 53.4094C239.152 53.8001 239.422 54.331 239.422 55.0021C239.422 55.4815 239.269 55.8615 238.964 56.142C238.659 56.4226 238.254 56.6108 237.75 56.7067C238.115 56.7493 238.451 56.8594 238.756 57.0369C239.062 57.2109 239.307 57.4453 239.491 57.7401C239.68 58.0348 239.774 58.3864 239.774 58.7947C239.774 59.228 239.662 59.6115 239.438 59.9453C239.214 60.2756 238.889 60.5348 238.463 60.723C238.041 60.9077 237.531 61 236.935 61H233.025ZM234.522 59.6683H236.935C237.329 59.6683 237.638 59.5742 237.861 59.386C238.085 59.1978 238.197 58.9421 238.197 58.619C238.197 58.239 238.085 57.9407 237.861 57.7241C237.638 57.5039 237.329 57.3938 236.935 57.3938H234.522V59.6683ZM234.522 56.2273H236.434C236.732 56.2273 236.988 56.1847 237.201 56.0994C237.418 56.0142 237.583 55.8935 237.696 55.7372C237.813 55.5774 237.872 55.3892 237.872 55.1726C237.872 54.8565 237.742 54.6097 237.483 54.4322C237.224 54.2546 236.869 54.1658 236.418 54.1658H234.522V56.2273ZM245.047 61.1651C244.241 61.1651 243.547 60.9929 242.964 60.6484C242.386 60.3004 241.938 59.8121 241.622 59.1836C241.31 58.5515 241.153 57.8111 241.153 56.9624C241.153 56.1243 241.31 55.3857 241.622 54.7464C241.938 54.1072 242.378 53.6083 242.943 53.2496C243.511 52.891 244.175 52.7116 244.935 52.7116C245.397 52.7116 245.844 52.788 246.278 52.9407C246.711 53.0934 247.1 53.3331 247.444 53.6598C247.789 53.9865 248.06 54.4109 248.259 54.9329C248.458 55.4513 248.557 56.0817 248.557 56.8239V57.3885H242.054V56.1953H246.997C246.997 55.7763 246.911 55.4052 246.741 55.082C246.571 54.7553 246.331 54.4979 246.022 54.3097C245.717 54.1214 245.358 54.0273 244.946 54.0273C244.498 54.0273 244.108 54.1374 243.774 54.3576C243.444 54.5742 243.188 54.8583 243.007 55.2099C242.829 55.5579 242.741 55.9361 242.741 56.3445V57.2766C242.741 57.8235 242.837 58.2887 243.028 58.6722C243.224 59.0558 243.495 59.3487 243.843 59.5511C244.191 59.75 244.598 59.8494 245.063 59.8494C245.365 59.8494 245.64 59.8068 245.889 59.7216C246.137 59.6328 246.352 59.5014 246.533 59.3274C246.714 59.1534 246.853 58.9386 246.949 58.6829L248.456 58.9545C248.335 59.3984 248.119 59.7873 247.806 60.1211C247.497 60.4513 247.109 60.7088 246.64 60.8935C246.175 61.0746 245.644 61.1651 245.047 61.1651ZM255.87 56.2219V57.6016H251.438V56.2219H255.87ZM251.885 52.8182V61H250.325V52.8182H251.885ZM256.983 52.8182V61H255.428V52.8182H256.983ZM264.659 56.2219V57.6016H260.227V56.2219H264.659ZM260.674 52.8182V61H259.114V52.8182H260.674ZM265.772 52.8182V61H264.217V52.8182H265.772ZM271.349 61.1651C270.582 61.1651 269.913 60.9893 269.341 60.6378C268.769 60.2862 268.325 59.7944 268.009 59.1623C267.693 58.5302 267.535 57.7915 267.535 56.9464C267.535 56.0977 267.693 55.3555 268.009 54.7198C268.325 54.0842 268.769 53.5906 269.341 53.239C269.913 52.8874 270.582 52.7116 271.349 52.7116C272.116 52.7116 272.786 52.8874 273.357 53.239C273.929 53.5906 274.373 54.0842 274.689 54.7198C275.005 55.3555 275.163 56.0977 275.163 56.9464C275.163 57.7915 275.005 58.5302 274.689 59.1623C274.373 59.7944 273.929 60.2862 273.357 60.6378C272.786 60.9893 272.116 61.1651 271.349 61.1651ZM271.354 59.8281C271.852 59.8281 272.263 59.6967 272.59 59.4339C272.917 59.1712 273.158 58.8214 273.315 58.3846C273.474 57.9478 273.554 57.4666 273.554 56.9411C273.554 56.419 273.474 55.9396 273.315 55.5028C273.158 55.0625 272.917 54.7092 272.59 54.4428C272.263 54.1765 271.852 54.0433 271.354 54.0433C270.854 54.0433 270.438 54.1765 270.108 54.4428C269.781 54.7092 269.538 55.0625 269.378 55.5028C269.222 55.9396 269.144 56.419 269.144 56.9411C269.144 57.4666 269.222 57.9478 269.378 58.3846C269.538 58.8214 269.781 59.1712 270.108 59.4339C270.438 59.6967 270.854 59.8281 271.354 59.8281Z" fill="#EE591F"/>
<path d="M108.966 44V26.5455H125.239V44H119.33V31.2273H114.784V44H108.966ZM136.798 44.3182C134.935 44.3182 133.329 43.9621 131.98 43.25C130.639 42.5303 129.605 41.5 128.878 40.1591C128.158 38.8106 127.798 37.197 127.798 35.3182C127.798 33.5152 128.162 31.9394 128.889 30.5909C129.616 29.2424 130.643 28.1932 131.969 27.4432C133.295 26.6932 134.859 26.3182 136.662 26.3182C137.98 26.3182 139.173 26.5227 140.241 26.9318C141.31 27.3409 142.223 27.9356 142.98 28.7159C143.738 29.4886 144.321 30.428 144.73 31.5341C145.139 32.6402 145.344 33.8864 145.344 35.2727V36.7273H129.753V33.2727H139.571C139.563 32.7727 139.435 32.3333 139.185 31.9545C138.942 31.5682 138.613 31.2689 138.196 31.0568C137.787 30.8371 137.321 30.7273 136.798 30.7273C136.291 30.7273 135.825 30.8371 135.401 31.0568C134.976 31.2689 134.635 31.5644 134.378 31.9432C134.128 32.322 133.995 32.7652 133.98 33.2727V37C133.98 37.5606 134.098 38.0606 134.332 38.5C134.567 38.9394 134.904 39.2841 135.344 39.5341C135.783 39.7841 136.313 39.9091 136.935 39.9091C137.366 39.9091 137.76 39.8485 138.116 39.7273C138.48 39.6061 138.791 39.4318 139.048 39.2045C139.306 38.9697 139.495 38.6894 139.616 38.3636H145.344C145.147 39.5758 144.681 40.6288 143.946 41.5227C143.211 42.4091 142.238 43.0985 141.026 43.5909C139.821 44.0758 138.412 44.3182 136.798 44.3182ZM156.312 44.3182C154.419 44.3182 152.797 43.9432 151.449 43.1932C150.1 42.4356 149.066 41.3826 148.347 40.0341C147.627 38.678 147.267 37.1061 147.267 35.3182C147.267 33.5303 147.627 31.9621 148.347 30.6136C149.066 29.2576 150.1 28.2045 151.449 27.4545C152.797 26.697 154.419 26.3182 156.312 26.3182C158.025 26.3182 159.506 26.6288 160.756 27.25C162.013 27.8636 162.987 28.7348 163.676 29.8636C164.366 30.9848 164.714 32.303 164.722 33.8182H158.903C158.82 32.9015 158.555 32.2045 158.108 31.7273C157.669 31.2424 157.1 31 156.403 31C155.858 31 155.381 31.1591 154.972 31.4773C154.563 31.7879 154.244 32.2614 154.017 32.8977C153.79 33.5265 153.676 34.3182 153.676 35.2727C153.676 36.2273 153.79 37.0227 154.017 37.6591C154.244 38.2879 154.563 38.7614 154.972 39.0795C155.381 39.3902 155.858 39.5455 156.403 39.5455C156.866 39.5455 157.275 39.4394 157.631 39.2273C157.987 39.0076 158.275 38.6894 158.494 38.2727C158.722 37.8485 158.858 37.3333 158.903 36.7273H164.722C164.699 38.2652 164.347 39.6061 163.665 40.75C162.983 41.8864 162.017 42.7652 160.767 43.3864C159.525 44.0076 158.04 44.3182 156.312 44.3182ZM175.719 44.3182C173.825 44.3182 172.204 43.9432 170.855 43.1932C169.507 42.4356 168.473 41.3826 167.753 40.0341C167.033 38.678 166.673 37.1061 166.673 35.3182C166.673 33.5303 167.033 31.9621 167.753 30.6136C168.473 29.2576 169.507 28.2045 170.855 27.4545C172.204 26.697 173.825 26.3182 175.719 26.3182C177.613 26.3182 179.234 26.697 180.582 27.4545C181.931 28.2045 182.965 29.2576 183.685 30.6136C184.404 31.9621 184.764 33.5303 184.764 35.3182C184.764 37.1061 184.404 38.678 183.685 40.0341C182.965 41.3826 181.931 42.4356 180.582 43.1932C179.234 43.9432 177.613 44.3182 175.719 44.3182ZM175.764 39.6818C176.295 39.6818 176.753 39.5038 177.139 39.1477C177.526 38.7917 177.825 38.2841 178.037 37.625C178.249 36.9659 178.355 36.1818 178.355 35.2727C178.355 34.3561 178.249 33.572 178.037 32.9205C177.825 32.2614 177.526 31.7538 177.139 31.3977C176.753 31.0417 176.295 30.8636 175.764 30.8636C175.204 30.8636 174.723 31.0417 174.321 31.3977C173.92 31.7538 173.613 32.2614 173.401 32.9205C173.188 33.572 173.082 34.3561 173.082 35.2727C173.082 36.1818 173.188 36.9659 173.401 37.625C173.613 38.2841 173.92 38.7917 174.321 39.1477C174.723 39.5038 175.204 39.6818 175.764 39.6818ZM187.31 44V26.5455H193.582V32.7727H194.673L198.401 26.5455H205.582L199.991 35.3636L205.628 44H198.355L194.991 38.5909H193.582V44H187.31ZM221.875 44.3182C219.981 44.3182 218.36 43.9432 217.011 43.1932C215.663 42.4356 214.629 41.3826 213.909 40.0341C213.189 38.678 212.83 37.1061 212.83 35.3182C212.83 33.5303 213.189 31.9621 213.909 30.6136C214.629 29.2576 215.663 28.2045 217.011 27.4545C218.36 26.697 219.981 26.3182 221.875 26.3182C223.587 26.3182 225.068 26.6288 226.318 27.25C227.576 27.8636 228.549 28.7348 229.239 29.8636C229.928 30.9848 230.277 32.303 230.284 33.8182H224.466C224.383 32.9015 224.117 32.2045 223.67 31.7273C223.231 31.2424 222.663 31 221.966 31C221.42 31 220.943 31.1591 220.534 31.4773C220.125 31.7879 219.807 32.2614 219.58 32.8977C219.352 33.5265 219.239 34.3182 219.239 35.2727C219.239 36.2273 219.352 37.0227 219.58 37.6591C219.807 38.2879 220.125 38.7614 220.534 39.0795C220.943 39.3902 221.42 39.5455 221.966 39.5455C222.428 39.5455 222.837 39.4394 223.193 39.2273C223.549 39.0076 223.837 38.6894 224.057 38.2727C224.284 37.8485 224.42 37.3333 224.466 36.7273H230.284C230.261 38.2652 229.909 39.6061 229.227 40.75C228.545 41.8864 227.58 42.7652 226.33 43.3864C225.087 44.0076 223.602 44.3182 221.875 44.3182ZM231.821 31.2273V26.5455H248.73V31.2273H243.185V44H237.276V31.2273H231.821ZM251.06 50.5455V26.5455H257.287V29.5909H257.423C257.651 29 257.984 28.4583 258.423 27.9659C258.863 27.4659 259.408 27.0682 260.06 26.7727C260.711 26.4697 261.469 26.3182 262.332 26.3182C263.484 26.3182 264.579 26.625 265.616 27.2386C266.662 27.8523 267.51 28.8182 268.162 30.1364C268.821 31.4545 269.151 33.1667 269.151 35.2727C269.151 37.2879 268.836 38.9583 268.207 40.2841C267.586 41.6098 266.753 42.5985 265.707 43.25C264.67 43.9015 263.529 44.2273 262.287 44.2273C261.469 44.2273 260.738 44.0947 260.094 43.8295C259.457 43.5568 258.912 43.1894 258.457 42.7273C258.01 42.2576 257.666 41.7273 257.423 41.1364H257.332V50.5455H251.06ZM257.196 35.2727C257.196 36.1212 257.306 36.8561 257.526 37.4773C257.753 38.0909 258.071 38.5682 258.48 38.9091C258.897 39.2424 259.393 39.4091 259.969 39.4091C260.545 39.4091 261.033 39.2462 261.435 38.9205C261.844 38.5871 262.154 38.1136 262.366 37.5C262.586 36.8788 262.696 36.1364 262.696 35.2727C262.696 34.4091 262.586 33.6705 262.366 33.0568C262.154 32.4356 261.844 31.9621 261.435 31.6364C261.033 31.303 260.545 31.1364 259.969 31.1364C259.393 31.1364 258.897 31.303 258.48 31.6364C258.071 31.9621 257.753 32.4356 257.526 33.0568C257.306 33.6705 257.196 34.4091 257.196 35.2727ZM280.188 44.3182C278.294 44.3182 276.672 43.9432 275.324 43.1932C273.975 42.4356 272.941 41.3826 272.222 40.0341C271.502 38.678 271.142 37.1061 271.142 35.3182C271.142 33.5303 271.502 31.9621 272.222 30.6136C272.941 29.2576 273.975 28.2045 275.324 27.4545C276.672 26.697 278.294 26.3182 280.188 26.3182C282.081 26.3182 283.703 26.697 285.051 27.4545C286.4 28.2045 287.434 29.2576 288.153 30.6136C288.873 31.9621 289.233 33.5303 289.233 35.3182C289.233 37.1061 288.873 38.678 288.153 40.0341C287.434 41.3826 286.4 42.4356 285.051 43.1932C283.703 43.9432 282.081 44.3182 280.188 44.3182ZM280.233 39.6818C280.763 39.6818 281.222 39.5038 281.608 39.1477C281.994 38.7917 282.294 38.2841 282.506 37.625C282.718 36.9659 282.824 36.1818 282.824 35.2727C282.824 34.3561 282.718 33.572 282.506 32.9205C282.294 32.2614 281.994 31.7538 281.608 31.3977C281.222 31.0417 280.763 30.8636 280.233 30.8636C279.672 30.8636 279.191 31.0417 278.79 31.3977C278.388 31.7538 278.081 32.2614 277.869 32.9205C277.657 33.572 277.551 34.3561 277.551 35.2727C277.551 36.1818 277.657 36.9659 277.869 37.625C278.081 38.2841 278.388 38.7917 278.79 39.1477C279.191 39.5038 279.672 39.6818 280.233 39.6818ZM297.688 36L302.551 26.5455H308.46V44H302.551V34.5L297.688 44H291.778V26.5455H297.688V36ZM302.369 20.2727H306.324C306.316 21.75 305.752 22.9318 304.631 23.8182C303.509 24.697 301.998 25.1364 300.097 25.1364C298.18 25.1364 296.661 24.697 295.54 23.8182C294.419 22.9318 293.862 21.75 293.869 20.2727H297.778C297.771 20.75 297.941 21.1894 298.29 21.5909C298.646 21.9848 299.248 22.1818 300.097 22.1818C300.907 22.1818 301.487 21.9886 301.835 21.6023C302.184 21.2159 302.362 20.7727 302.369 20.2727Z" fill="#979797"/>
<path d="M4 61H65.5575L48.9204 33L33.9469 5L4 61Z" fill="#979797"/>
<path d="M48.9204 33L65.5575 61H93.5L65.5575 18L48.9204 33Z" fill="#979797"/>
<path d="M65.5575 61H4L33.9469 5L48.9204 33M65.5575 61L48.9204 33M65.5575 61H93.5L65.5575 18L48.9204 33" stroke="#EE591F" stroke-width="4"/>
</svg>
