<!-- icon666.com - MILLIONS vector ICONS FREE --><svg version="1.1" xmlns="http://www.w3.org/2000/svg" viewBox="0 0 297 297" xmlns:xlink="http://www.w3.org/1999/xlink" enable-background="new 0 0 297 297"><g><path d="M109.404,99.431c27.413,0,49.716-22.303,49.716-49.716S136.818,0,109.404,0S59.689,22.302,59.689,49.715 S81.991,99.431,109.404,99.431z M109.404,17.571c17.724,0,32.145,14.42,32.145,32.144S127.129,81.86,109.404,81.86 S77.26,67.439,77.26,49.715S91.68,17.571,109.404,17.571z" fill="#000000" style="fill: rgb(238, 89, 31);"></path><path d="m210.025,160.567c-3.523,0-6.984,0.269-10.365,0.786-2.337-18.608-15.109-34.455-33.254-40.503-0.068-0.022-14.644-4.495-14.644-4.495-4.474-1.374-9.231,0.997-10.831,5.39l-18.612,51.066c0,0-6.159-27.08-6.376-27.546l9.753-16.894c1.292-2.239 1.292-4.996 0-7.235-1.293-2.239-3.681-3.618-6.266-3.618h-20.05c-2.585,0-4.973,1.379-6.266,3.618-1.292,2.239-1.292,4.996 0,7.235l9.753,16.894c-0.218,0.466-6.376,27.546-6.376,27.546l-18.611-51.066c-1.601-4.393-6.362-6.765-10.831-5.39 0,0-14.576,4.472-14.644,4.495-20.124,6.708-33.645,25.467-33.645,46.68v80.014c0,4.852 3.933,8.785 8.785,8.785h120.094c10.606,23.929 34.57,40.671 62.386,40.671 37.615,0 68.217-30.602 68.217-68.217s-30.603-68.216-68.217-68.216zm-173.695,78.191v-71.228c-1.42109e-14-13.604 8.649-25.639 21.536-29.979l6.361-1.951c0,0 37.48,102.589 37.857,103.159h-65.754zm80.395-.001c0.377-0.569 37.858-103.159 37.858-103.159l6.361,1.951c12.532,4.221 21.032,15.725 21.491,28.867-23.905,10.617-40.627,34.569-40.627,62.366 0,3.388 0.257,6.717 0.736,9.974h-25.819zm93.3,40.672c-27.926,0-50.646-22.72-50.646-50.646s22.72-50.646 50.646-50.646 50.646,22.72 50.646,50.646-22.721,50.646-50.646,50.646z" fill="#000000" style="fill: rgb(238, 89, 31);"></path><path d="m229.393,205.517l-27.896,27.897-10.842-10.843c-3.432-3.43-8.993-3.43-12.425,0-3.431,3.431-3.431,8.994 0,12.425l17.054,17.054c1.716,1.715 3.964,2.573 6.213,2.573 2.249,0 4.497-0.858 6.213-2.573l34.108-34.108c3.431-3.431 3.431-8.994 0-12.425-3.432-3.43-8.993-3.43-12.425,0z" fill="#000000" style="fill: rgb(238, 89, 31);"></path></g></svg>