<!-- icon666.com - MILLIONS vector ICONS FREE --><svg version="1.1" id="Layer_1" xmlns="http://www.w3.org/2000/svg" xmlns:xlink="http://www.w3.org/1999/xlink" x="0px" y="0px" viewBox="0 0 306.033 306.033" style="enable-background:new 0 0 306.033 306.033;" xml:space="preserve"><path id="XMLID_89_" d="M283.021,205.216l0.02-24.171c0-0.246-0.024-0.484-0.036-0.727l-0.013-19.285c0-35.841-29.159-65-65-65 c-0.006,0-0.013,0.001-0.02,0.001h-54.348l15.549-30.895c3.109-6.203,4.752-13.167,4.752-20.139c0-24.813-20.187-45-45-45 c-17.157,0-32.585,9.536-40.264,24.887L34.407,153.382c-7.468,14.64-11.415,31.116-11.415,47.652 c0,57.896,47.103,104.999,105,104.999h90c35.841,0,65-29.159,65-64.988l0.004-5.126c0.018-0.298,0.045-0.593,0.045-0.895 L283.021,205.216z M217.992,276.033h-90c-41.355,0-75-33.645-75-74.999c0-12.006,2.746-23.467,8.162-34.066 c0.02-0.039,0.039-0.078,0.059-0.116l64.281-128.545c2.563-5.124,7.709-8.306,13.432-8.306c8.271,0,15,6.729,15,15 c0,2.362-0.529,4.616-1.561,6.675l-26.48,52.616c-2.34,4.65-2.102,10.181,0.629,14.612c2.731,4.432,7.564,7.131,12.77,7.131h78.709 c0.004,0,0.009-0.001,0.013-0.001c19.293,0.007,34.987,15.705,34.987,35.009l0.029,44.17l-0.029,35.82 C252.992,260.332,237.291,276.033,217.992,276.033z" fill="#000000" style="fill: rgb(238, 89, 31);"></path></svg>