<!-- icon666.com - MILLIONS vector ICONS FREE --><svg version="1.1" id="Capa_1" xmlns="http://www.w3.org/2000/svg" xmlns:xlink="http://www.w3.org/1999/xlink" x="0px" y="0px" viewBox="0 0 512 512" style="enable-background:new 0 0 512 512;" xml:space="preserve"><g><g><path d="M509.44,227.84l-51.2,5.12c0,7.68,0,15.36,0,23.04c0,112.64-92.16,204.8-204.8,204.8S48.64,368.64,48.64,256 S140.8,51.2,253.44,51.2c7.68,0,15.36,0,20.48,0L279.04,0c-5.12,0-15.36,0-23.04,0C115.2,0,0,115.2,0,256s115.2,256,256,256 s256-115.2,256-256C512,245.76,512,238.08,509.44,227.84z" fill="#000000" style="fill: rgb(238, 89, 31);"></path></g></g><g><g><polygon points="281.6,230.4 281.6,102.4 230.4,102.4 230.4,281.6 358.4,281.6 358.4,230.4 " fill="#000000" style="fill: rgb(238, 89, 31);"></polygon></g></g><g><g><polygon points="512,35.84 476.16,0 384,92.16 384,25.6 332.8,25.6 332.8,179.2 486.4,179.2 486.4,128 419.84,128 " fill="#000000" style="fill: rgb(238, 89, 31);"></polygon></g></g></svg>